<mxfile host="app.diagrams.net" modified="2023-05-23T06:29:06.256Z" agent="Mozilla/5.0 (Windows NT 10.0; Win64; x64) AppleWebKit/537.36 (KHTML, like Gecko) Chrome/113.0.0.0 Safari/537.36 Edg/113.0.1774.50" etag="NthwNkoaUsAWMJvG0_ru" version="21.3.2" type="onedrive">
  <diagram name="Page-1" id="EITg1FxAw7CP_iE6PSte">
    <mxGraphModel grid="1" page="1" gridSize="10" guides="1" tooltips="1" connect="1" arrows="1" fold="1" pageScale="1" pageWidth="850" pageHeight="1100" math="0" shadow="0">
      <root>
        <mxCell id="0" />
        <mxCell id="1" parent="0" />
        <mxCell id="IhHEuCqkt4Yi7_qrhP9U-9" style="edgeStyle=orthogonalEdgeStyle;rounded=0;sketch=1;hachureGap=4;jiggle=2;curveFitting=1;orthogonalLoop=1;jettySize=auto;html=1;exitX=0.5;exitY=0;exitDx=0;exitDy=0;entryX=0;entryY=0.5;entryDx=0;entryDy=0;fontFamily=Architects Daughter;fontSource=https%3A%2F%2Ffonts.googleapis.com%2Fcss%3Ffamily%3DArchitects%2BDaughter;fontSize=16;" edge="1" parent="1" source="IhHEuCqkt4Yi7_qrhP9U-1" target="IhHEuCqkt4Yi7_qrhP9U-7">
          <mxGeometry relative="1" as="geometry" />
        </mxCell>
        <mxCell id="IhHEuCqkt4Yi7_qrhP9U-10" style="edgeStyle=orthogonalEdgeStyle;rounded=0;sketch=1;hachureGap=4;jiggle=2;curveFitting=1;orthogonalLoop=1;jettySize=auto;html=1;entryX=0;entryY=0.5;entryDx=0;entryDy=0;fontFamily=Architects Daughter;fontSource=https%3A%2F%2Ffonts.googleapis.com%2Fcss%3Ffamily%3DArchitects%2BDaughter;fontSize=16;" edge="1" parent="1" source="IhHEuCqkt4Yi7_qrhP9U-1" target="IhHEuCqkt4Yi7_qrhP9U-5">
          <mxGeometry relative="1" as="geometry" />
        </mxCell>
        <mxCell id="IhHEuCqkt4Yi7_qrhP9U-23" style="edgeStyle=orthogonalEdgeStyle;rounded=0;sketch=1;hachureGap=4;jiggle=2;curveFitting=1;orthogonalLoop=1;jettySize=auto;html=1;entryX=0;entryY=0.5;entryDx=0;entryDy=0;fontFamily=Architects Daughter;fontSource=https%3A%2F%2Ffonts.googleapis.com%2Fcss%3Ffamily%3DArchitects%2BDaughter;fontSize=16;exitX=0.5;exitY=1;exitDx=0;exitDy=0;" edge="1" parent="1" source="IhHEuCqkt4Yi7_qrhP9U-1" target="IhHEuCqkt4Yi7_qrhP9U-21">
          <mxGeometry relative="1" as="geometry" />
        </mxCell>
        <mxCell id="IhHEuCqkt4Yi7_qrhP9U-1" value="Control Logic" style="rounded=0;whiteSpace=wrap;html=1;sketch=1;hachureGap=4;jiggle=2;curveFitting=1;fontFamily=Architects Daughter;fontSource=https%3A%2F%2Ffonts.googleapis.com%2Fcss%3Ffamily%3DArchitects%2BDaughter;fontSize=20;" vertex="1" parent="1">
          <mxGeometry x="160" y="360" width="120" height="60" as="geometry" />
        </mxCell>
        <mxCell id="IhHEuCqkt4Yi7_qrhP9U-2" value="" style="endArrow=classic;html=1;rounded=0;sketch=1;hachureGap=4;jiggle=2;curveFitting=1;fontFamily=Architects Daughter;fontSource=https%3A%2F%2Ffonts.googleapis.com%2Fcss%3Ffamily%3DArchitects%2BDaughter;fontSize=16;" edge="1" parent="1">
          <mxGeometry width="50" height="50" relative="1" as="geometry">
            <mxPoint x="110" y="370" as="sourcePoint" />
            <mxPoint x="160" y="370" as="targetPoint" />
          </mxGeometry>
        </mxCell>
        <mxCell id="IhHEuCqkt4Yi7_qrhP9U-3" value="" style="endArrow=classic;html=1;rounded=0;sketch=1;hachureGap=4;jiggle=2;curveFitting=1;fontFamily=Architects Daughter;fontSource=https%3A%2F%2Ffonts.googleapis.com%2Fcss%3Ffamily%3DArchitects%2BDaughter;fontSize=16;" edge="1" parent="1">
          <mxGeometry width="50" height="50" relative="1" as="geometry">
            <mxPoint x="110" y="389.5" as="sourcePoint" />
            <mxPoint x="160" y="389.5" as="targetPoint" />
          </mxGeometry>
        </mxCell>
        <mxCell id="IhHEuCqkt4Yi7_qrhP9U-4" value="" style="endArrow=classic;html=1;rounded=0;sketch=1;hachureGap=4;jiggle=2;curveFitting=1;fontFamily=Architects Daughter;fontSource=https%3A%2F%2Ffonts.googleapis.com%2Fcss%3Ffamily%3DArchitects%2BDaughter;fontSize=16;" edge="1" parent="1">
          <mxGeometry width="50" height="50" relative="1" as="geometry">
            <mxPoint x="110" y="410" as="sourcePoint" />
            <mxPoint x="160" y="410" as="targetPoint" />
          </mxGeometry>
        </mxCell>
        <mxCell id="IhHEuCqkt4Yi7_qrhP9U-5" value="Counter" style="rounded=0;whiteSpace=wrap;html=1;sketch=1;hachureGap=4;jiggle=2;curveFitting=1;fontFamily=Architects Daughter;fontSource=https%3A%2F%2Ffonts.googleapis.com%2Fcss%3Ffamily%3DArchitects%2BDaughter;fontSize=20;" vertex="1" parent="1">
          <mxGeometry x="320" y="360" width="120" height="60" as="geometry" />
        </mxCell>
        <mxCell id="IhHEuCqkt4Yi7_qrhP9U-14" style="edgeStyle=orthogonalEdgeStyle;rounded=0;sketch=1;hachureGap=4;jiggle=2;curveFitting=1;orthogonalLoop=1;jettySize=auto;html=1;entryX=0;entryY=0.5;entryDx=0;entryDy=0;fontFamily=Architects Daughter;fontSource=https%3A%2F%2Ffonts.googleapis.com%2Fcss%3Ffamily%3DArchitects%2BDaughter;fontSize=16;" edge="1" parent="1" source="IhHEuCqkt4Yi7_qrhP9U-7" target="IhHEuCqkt4Yi7_qrhP9U-12">
          <mxGeometry relative="1" as="geometry" />
        </mxCell>
        <mxCell id="IhHEuCqkt4Yi7_qrhP9U-20" style="edgeStyle=orthogonalEdgeStyle;rounded=0;sketch=1;hachureGap=4;jiggle=2;curveFitting=1;orthogonalLoop=1;jettySize=auto;html=1;entryX=0;entryY=0.5;entryDx=0;entryDy=0;fontFamily=Architects Daughter;fontSource=https%3A%2F%2Ffonts.googleapis.com%2Fcss%3Ffamily%3DArchitects%2BDaughter;fontSize=16;" edge="1" parent="1" source="IhHEuCqkt4Yi7_qrhP9U-7" target="IhHEuCqkt4Yi7_qrhP9U-17">
          <mxGeometry relative="1" as="geometry" />
        </mxCell>
        <mxCell id="IhHEuCqkt4Yi7_qrhP9U-7" value="Register" style="rounded=0;whiteSpace=wrap;html=1;sketch=1;hachureGap=4;jiggle=2;curveFitting=1;fontFamily=Architects Daughter;fontSource=https%3A%2F%2Ffonts.googleapis.com%2Fcss%3Ffamily%3DArchitects%2BDaughter;fontSize=20;" vertex="1" parent="1">
          <mxGeometry x="320" y="260" width="120" height="60" as="geometry" />
        </mxCell>
        <mxCell id="IhHEuCqkt4Yi7_qrhP9U-11" value="" style="endArrow=classic;html=1;rounded=0;sketch=1;hachureGap=4;jiggle=2;curveFitting=1;fontFamily=Architects Daughter;fontSource=https%3A%2F%2Ffonts.googleapis.com%2Fcss%3Ffamily%3DArchitects%2BDaughter;fontSize=16;entryX=0.5;entryY=1;entryDx=0;entryDy=0;exitX=0.5;exitY=0;exitDx=0;exitDy=0;" edge="1" parent="1" source="IhHEuCqkt4Yi7_qrhP9U-5" target="IhHEuCqkt4Yi7_qrhP9U-7">
          <mxGeometry width="50" height="50" relative="1" as="geometry">
            <mxPoint x="400" y="430" as="sourcePoint" />
            <mxPoint x="450" y="380" as="targetPoint" />
          </mxGeometry>
        </mxCell>
        <mxCell id="IhHEuCqkt4Yi7_qrhP9U-12" value="MOSI" style="rounded=0;whiteSpace=wrap;html=1;sketch=1;hachureGap=4;jiggle=2;curveFitting=1;fontFamily=Architects Daughter;fontSource=https%3A%2F%2Ffonts.googleapis.com%2Fcss%3Ffamily%3DArchitects%2BDaughter;fontSize=20;" vertex="1" parent="1">
          <mxGeometry x="480" y="260" width="120" height="60" as="geometry" />
        </mxCell>
        <mxCell id="IhHEuCqkt4Yi7_qrhP9U-22" style="edgeStyle=orthogonalEdgeStyle;rounded=0;sketch=1;hachureGap=4;jiggle=2;curveFitting=1;orthogonalLoop=1;jettySize=auto;html=1;entryX=1;entryY=0.5;entryDx=0;entryDy=0;fontFamily=Architects Daughter;fontSource=https%3A%2F%2Ffonts.googleapis.com%2Fcss%3Ffamily%3DArchitects%2BDaughter;fontSize=16;" edge="1" parent="1" source="IhHEuCqkt4Yi7_qrhP9U-15" target="IhHEuCqkt4Yi7_qrhP9U-21">
          <mxGeometry relative="1" as="geometry" />
        </mxCell>
        <mxCell id="IhHEuCqkt4Yi7_qrhP9U-15" value="MISO" style="rounded=0;whiteSpace=wrap;html=1;sketch=1;hachureGap=4;jiggle=2;curveFitting=1;fontFamily=Architects Daughter;fontSource=https%3A%2F%2Ffonts.googleapis.com%2Fcss%3Ffamily%3DArchitects%2BDaughter;fontSize=20;" vertex="1" parent="1">
          <mxGeometry x="480" y="360" width="120" height="60" as="geometry" />
        </mxCell>
        <mxCell id="IhHEuCqkt4Yi7_qrhP9U-18" style="edgeStyle=orthogonalEdgeStyle;rounded=0;sketch=1;hachureGap=4;jiggle=2;curveFitting=1;orthogonalLoop=1;jettySize=auto;html=1;entryX=1;entryY=0.5;entryDx=0;entryDy=0;fontFamily=Architects Daughter;fontSource=https%3A%2F%2Ffonts.googleapis.com%2Fcss%3Ffamily%3DArchitects%2BDaughter;fontSize=16;exitX=1;exitY=0.5;exitDx=0;exitDy=0;" edge="1" parent="1" source="IhHEuCqkt4Yi7_qrhP9U-17" target="IhHEuCqkt4Yi7_qrhP9U-15">
          <mxGeometry relative="1" as="geometry" />
        </mxCell>
        <mxCell id="IhHEuCqkt4Yi7_qrhP9U-19" style="edgeStyle=orthogonalEdgeStyle;rounded=0;sketch=1;hachureGap=4;jiggle=2;curveFitting=1;orthogonalLoop=1;jettySize=auto;html=1;entryX=1;entryY=0.5;entryDx=0;entryDy=0;fontFamily=Architects Daughter;fontSource=https%3A%2F%2Ffonts.googleapis.com%2Fcss%3Ffamily%3DArchitects%2BDaughter;fontSize=16;exitX=1;exitY=0.5;exitDx=0;exitDy=0;" edge="1" parent="1" source="IhHEuCqkt4Yi7_qrhP9U-17" target="IhHEuCqkt4Yi7_qrhP9U-12">
          <mxGeometry relative="1" as="geometry" />
        </mxCell>
        <mxCell id="IhHEuCqkt4Yi7_qrhP9U-17" value="Clock" style="rounded=0;whiteSpace=wrap;html=1;sketch=1;hachureGap=4;jiggle=2;curveFitting=1;fontFamily=Architects Daughter;fontSource=https%3A%2F%2Ffonts.googleapis.com%2Fcss%3Ffamily%3DArchitects%2BDaughter;fontSize=20;" vertex="1" parent="1">
          <mxGeometry x="480" y="160" width="120" height="60" as="geometry" />
        </mxCell>
        <mxCell id="IhHEuCqkt4Yi7_qrhP9U-21" value="Register" style="rounded=0;whiteSpace=wrap;html=1;sketch=1;hachureGap=4;jiggle=2;curveFitting=1;fontFamily=Architects Daughter;fontSource=https%3A%2F%2Ffonts.googleapis.com%2Fcss%3Ffamily%3DArchitects%2BDaughter;fontSize=20;" vertex="1" parent="1">
          <mxGeometry x="320" y="460" width="120" height="60" as="geometry" />
        </mxCell>
        <mxCell id="IhHEuCqkt4Yi7_qrhP9U-24" value="EN" style="text;html=1;align=center;verticalAlign=middle;resizable=0;points=[];autosize=1;strokeColor=none;fillColor=none;fontSize=20;fontFamily=Architects Daughter;" vertex="1" parent="1">
          <mxGeometry x="70" y="350" width="50" height="40" as="geometry" />
        </mxCell>
        <mxCell id="IhHEuCqkt4Yi7_qrhP9U-26" value="RW" style="text;html=1;align=center;verticalAlign=middle;resizable=0;points=[];autosize=1;strokeColor=none;fillColor=none;fontSize=20;fontFamily=Architects Daughter;" vertex="1" parent="1">
          <mxGeometry x="60" y="370" width="60" height="40" as="geometry" />
        </mxCell>
        <mxCell id="IhHEuCqkt4Yi7_qrhP9U-28" value="DATA" style="text;html=1;align=center;verticalAlign=middle;resizable=0;points=[];autosize=1;strokeColor=none;fillColor=none;fontSize=20;fontFamily=Architects Daughter;" vertex="1" parent="1">
          <mxGeometry x="50" y="390" width="70" height="40" as="geometry" />
        </mxCell>
      </root>
    </mxGraphModel>
  </diagram>
</mxfile>
